<mxfile host="app.diagrams.net" modified="2022-10-29T14:08:07.002Z" agent="5.0 (Macintosh; Intel Mac OS X 10_15_7) AppleWebKit/537.36 (KHTML, like Gecko) Chrome/106.0.0.0 Safari/537.36" etag="_-k8U9_LkQyk3nCmRNS8" version="20.5.1" type="github">
  <diagram id="Z5iwHIcZEACn4jIKpfEN" name="Page-1">
    <mxGraphModel dx="1515" dy="1535" grid="1" gridSize="10" guides="1" tooltips="1" connect="1" arrows="1" fold="1" page="1" pageScale="1" pageWidth="850" pageHeight="1100" math="0" shadow="0">
      <root>
        <mxCell id="0" />
        <mxCell id="1" parent="0" />
        <mxCell id="zim9InCL9UAhZSMzU34I-10" value="" style="edgeStyle=orthogonalEdgeStyle;rounded=0;orthogonalLoop=1;jettySize=auto;html=1;" parent="1" source="zim9InCL9UAhZSMzU34I-7" target="zim9InCL9UAhZSMzU34I-9" edge="1">
          <mxGeometry relative="1" as="geometry" />
        </mxCell>
        <mxCell id="zim9InCL9UAhZSMzU34I-14" style="edgeStyle=orthogonalEdgeStyle;rounded=0;orthogonalLoop=1;jettySize=auto;html=1;exitX=1;exitY=0.5;exitDx=0;exitDy=0;entryX=0.5;entryY=0;entryDx=0;entryDy=0;" parent="1" source="zim9InCL9UAhZSMzU34I-7" target="zim9InCL9UAhZSMzU34I-12" edge="1">
          <mxGeometry relative="1" as="geometry" />
        </mxCell>
        <mxCell id="zim9InCL9UAhZSMzU34I-7" value="Pull Request to develop" style="rounded=1;whiteSpace=wrap;html=1;" parent="1" vertex="1">
          <mxGeometry x="1460" y="70" width="120" height="100" as="geometry" />
        </mxCell>
        <mxCell id="zim9InCL9UAhZSMzU34I-8" style="edgeStyle=orthogonalEdgeStyle;rounded=0;orthogonalLoop=1;jettySize=auto;html=1;exitX=0.5;exitY=1;exitDx=0;exitDy=0;" parent="1" source="zim9InCL9UAhZSMzU34I-7" target="zim9InCL9UAhZSMzU34I-7" edge="1">
          <mxGeometry relative="1" as="geometry" />
        </mxCell>
        <mxCell id="zim9InCL9UAhZSMzU34I-16" value="" style="edgeStyle=orthogonalEdgeStyle;rounded=0;orthogonalLoop=1;jettySize=auto;html=1;" parent="1" source="zim9InCL9UAhZSMzU34I-9" target="zim9InCL9UAhZSMzU34I-15" edge="1">
          <mxGeometry relative="1" as="geometry" />
        </mxCell>
        <mxCell id="zim9InCL9UAhZSMzU34I-9" value="Mac-os" style="whiteSpace=wrap;html=1;rounded=1;" parent="1" vertex="1">
          <mxGeometry x="1290" y="280" width="120" height="60" as="geometry" />
        </mxCell>
        <mxCell id="zim9InCL9UAhZSMzU34I-25" value="" style="edgeStyle=orthogonalEdgeStyle;rounded=0;orthogonalLoop=1;jettySize=auto;html=1;" parent="1" source="zim9InCL9UAhZSMzU34I-12" target="zim9InCL9UAhZSMzU34I-24" edge="1">
          <mxGeometry relative="1" as="geometry" />
        </mxCell>
        <mxCell id="zim9InCL9UAhZSMzU34I-12" value="ubuntu" style="whiteSpace=wrap;html=1;rounded=1;" parent="1" vertex="1">
          <mxGeometry x="1650" y="280" width="120" height="60" as="geometry" />
        </mxCell>
        <mxCell id="zim9InCL9UAhZSMzU34I-18" style="edgeStyle=orthogonalEdgeStyle;rounded=0;orthogonalLoop=1;jettySize=auto;html=1;exitX=0.5;exitY=1;exitDx=0;exitDy=0;entryX=0.5;entryY=0;entryDx=0;entryDy=0;" parent="1" source="zim9InCL9UAhZSMzU34I-15" target="zim9InCL9UAhZSMzU34I-17" edge="1">
          <mxGeometry relative="1" as="geometry" />
        </mxCell>
        <mxCell id="zim9InCL9UAhZSMzU34I-15" value="Install Node, Install IOS related dependecies for E2E tests and general dependecies for react native" style="whiteSpace=wrap;html=1;rounded=1;" parent="1" vertex="1">
          <mxGeometry x="1215" y="520" width="270" height="100" as="geometry" />
        </mxCell>
        <mxCell id="zim9InCL9UAhZSMzU34I-20" value="" style="edgeStyle=orthogonalEdgeStyle;rounded=0;orthogonalLoop=1;jettySize=auto;html=1;" parent="1" source="zim9InCL9UAhZSMzU34I-17" target="zim9InCL9UAhZSMzU34I-19" edge="1">
          <mxGeometry relative="1" as="geometry" />
        </mxCell>
        <mxCell id="zim9InCL9UAhZSMzU34I-17" value="Run unit tests" style="whiteSpace=wrap;html=1;rounded=1;" parent="1" vertex="1">
          <mxGeometry x="1290" y="710" width="120" height="60" as="geometry" />
        </mxCell>
        <mxCell id="zim9InCL9UAhZSMzU34I-22" value="" style="edgeStyle=orthogonalEdgeStyle;rounded=0;orthogonalLoop=1;jettySize=auto;html=1;" parent="1" source="zim9InCL9UAhZSMzU34I-19" target="zim9InCL9UAhZSMzU34I-21" edge="1">
          <mxGeometry relative="1" as="geometry" />
        </mxCell>
        <mxCell id="zim9InCL9UAhZSMzU34I-19" value="Run E2E tests" style="whiteSpace=wrap;html=1;rounded=1;" parent="1" vertex="1">
          <mxGeometry x="1290" y="850" width="120" height="60" as="geometry" />
        </mxCell>
        <mxCell id="zim9InCL9UAhZSMzU34I-21" value="Send slack message indicating results of tests" style="whiteSpace=wrap;html=1;rounded=1;" parent="1" vertex="1">
          <mxGeometry x="1290" y="990" width="120" height="60" as="geometry" />
        </mxCell>
        <mxCell id="zim9InCL9UAhZSMzU34I-28" value="" style="edgeStyle=orthogonalEdgeStyle;rounded=0;orthogonalLoop=1;jettySize=auto;html=1;" parent="1" source="zim9InCL9UAhZSMzU34I-24" target="zim9InCL9UAhZSMzU34I-27" edge="1">
          <mxGeometry relative="1" as="geometry" />
        </mxCell>
        <mxCell id="zim9InCL9UAhZSMzU34I-24" value="Install Node, Install android related dependecies for E2E tests and general dependecies for react native" style="whiteSpace=wrap;html=1;rounded=1;" parent="1" vertex="1">
          <mxGeometry x="1750" y="520" width="350" height="130" as="geometry" />
        </mxCell>
        <mxCell id="zim9InCL9UAhZSMzU34I-30" value="" style="edgeStyle=orthogonalEdgeStyle;rounded=0;orthogonalLoop=1;jettySize=auto;html=1;" parent="1" source="zim9InCL9UAhZSMzU34I-27" target="zim9InCL9UAhZSMzU34I-29" edge="1">
          <mxGeometry relative="1" as="geometry" />
        </mxCell>
        <mxCell id="zim9InCL9UAhZSMzU34I-27" value="Run unit tests" style="whiteSpace=wrap;html=1;rounded=1;" parent="1" vertex="1">
          <mxGeometry x="1865" y="710" width="120" height="60" as="geometry" />
        </mxCell>
        <mxCell id="zim9InCL9UAhZSMzU34I-32" value="" style="edgeStyle=orthogonalEdgeStyle;rounded=0;orthogonalLoop=1;jettySize=auto;html=1;" parent="1" source="zim9InCL9UAhZSMzU34I-29" target="zim9InCL9UAhZSMzU34I-31" edge="1">
          <mxGeometry relative="1" as="geometry" />
        </mxCell>
        <mxCell id="zim9InCL9UAhZSMzU34I-29" value="Run E2E tests" style="whiteSpace=wrap;html=1;rounded=1;" parent="1" vertex="1">
          <mxGeometry x="1865" y="850" width="120" height="60" as="geometry" />
        </mxCell>
        <mxCell id="zim9InCL9UAhZSMzU34I-31" value="Send slack message indicating results of tests" style="whiteSpace=wrap;html=1;rounded=1;" parent="1" vertex="1">
          <mxGeometry x="1865" y="990" width="120" height="60" as="geometry" />
        </mxCell>
        <mxCell id="zim9InCL9UAhZSMzU34I-36" style="edgeStyle=orthogonalEdgeStyle;rounded=0;orthogonalLoop=1;jettySize=auto;html=1;exitX=0;exitY=0.5;exitDx=0;exitDy=0;entryX=0.5;entryY=0;entryDx=0;entryDy=0;" parent="1" source="zim9InCL9UAhZSMzU34I-33" target="zim9InCL9UAhZSMzU34I-34" edge="1">
          <mxGeometry relative="1" as="geometry" />
        </mxCell>
        <mxCell id="zim9InCL9UAhZSMzU34I-37" style="edgeStyle=orthogonalEdgeStyle;rounded=0;orthogonalLoop=1;jettySize=auto;html=1;exitX=1;exitY=0.5;exitDx=0;exitDy=0;entryX=0.5;entryY=0;entryDx=0;entryDy=0;" parent="1" source="zim9InCL9UAhZSMzU34I-33" target="zim9InCL9UAhZSMzU34I-35" edge="1">
          <mxGeometry relative="1" as="geometry" />
        </mxCell>
        <mxCell id="zim9InCL9UAhZSMzU34I-33" value="Merge to Master" style="rounded=1;whiteSpace=wrap;html=1;" parent="1" vertex="1">
          <mxGeometry x="2690" y="70" width="170" height="90" as="geometry" />
        </mxCell>
        <mxCell id="zim9InCL9UAhZSMzU34I-41" style="edgeStyle=orthogonalEdgeStyle;rounded=0;orthogonalLoop=1;jettySize=auto;html=1;exitX=0.5;exitY=1;exitDx=0;exitDy=0;" parent="1" source="zim9InCL9UAhZSMzU34I-34" target="zim9InCL9UAhZSMzU34I-38" edge="1">
          <mxGeometry relative="1" as="geometry" />
        </mxCell>
        <mxCell id="zim9InCL9UAhZSMzU34I-34" value="mac-os" style="whiteSpace=wrap;html=1;rounded=1;" parent="1" vertex="1">
          <mxGeometry x="2310" y="250" width="120" height="60" as="geometry" />
        </mxCell>
        <mxCell id="zim9InCL9UAhZSMzU34I-40" value="" style="edgeStyle=orthogonalEdgeStyle;rounded=0;orthogonalLoop=1;jettySize=auto;html=1;" parent="1" source="zim9InCL9UAhZSMzU34I-35" target="zim9InCL9UAhZSMzU34I-39" edge="1">
          <mxGeometry relative="1" as="geometry" />
        </mxCell>
        <mxCell id="zim9InCL9UAhZSMzU34I-35" value="ubuntu" style="whiteSpace=wrap;html=1;rounded=1;" parent="1" vertex="1">
          <mxGeometry x="3100" y="250" width="120" height="60" as="geometry" />
        </mxCell>
        <mxCell id="zim9InCL9UAhZSMzU34I-43" value="" style="edgeStyle=orthogonalEdgeStyle;rounded=0;orthogonalLoop=1;jettySize=auto;html=1;" parent="1" source="zim9InCL9UAhZSMzU34I-38" target="zim9InCL9UAhZSMzU34I-42" edge="1">
          <mxGeometry relative="1" as="geometry" />
        </mxCell>
        <mxCell id="zim9InCL9UAhZSMzU34I-38" value="&lt;ul&gt;&lt;li&gt;install node&lt;/li&gt;&lt;li&gt;install packages&lt;/li&gt;&lt;li&gt;install cocapods&lt;/li&gt;&lt;li&gt;install pods&lt;/li&gt;&lt;li&gt;&lt;br&gt;&lt;/li&gt;&lt;/ul&gt;" style="whiteSpace=wrap;html=1;rounded=1;" parent="1" vertex="1">
          <mxGeometry x="2250" y="530" width="320" height="90" as="geometry" />
        </mxCell>
        <mxCell id="zim9InCL9UAhZSMzU34I-49" style="edgeStyle=orthogonalEdgeStyle;rounded=0;orthogonalLoop=1;jettySize=auto;html=1;exitX=0.5;exitY=1;exitDx=0;exitDy=0;entryX=0.5;entryY=0;entryDx=0;entryDy=0;" parent="1" source="zim9InCL9UAhZSMzU34I-39" target="zim9InCL9UAhZSMzU34I-48" edge="1">
          <mxGeometry relative="1" as="geometry" />
        </mxCell>
        <mxCell id="zim9InCL9UAhZSMzU34I-39" value="&lt;ul&gt;&lt;li&gt;install node&lt;/li&gt;&lt;li&gt;install packages&lt;/li&gt;&lt;li&gt;install java&lt;/li&gt;&lt;/ul&gt;" style="whiteSpace=wrap;html=1;rounded=1;" parent="1" vertex="1">
          <mxGeometry x="3015" y="520" width="290" height="90" as="geometry" />
        </mxCell>
        <mxCell id="zim9InCL9UAhZSMzU34I-45" value="" style="edgeStyle=orthogonalEdgeStyle;rounded=0;orthogonalLoop=1;jettySize=auto;html=1;" parent="1" source="zim9InCL9UAhZSMzU34I-42" target="zim9InCL9UAhZSMzU34I-44" edge="1">
          <mxGeometry relative="1" as="geometry" />
        </mxCell>
        <mxCell id="zim9InCL9UAhZSMzU34I-42" value="read version number from package.json" style="whiteSpace=wrap;html=1;rounded=1;" parent="1" vertex="1">
          <mxGeometry x="2350" y="715" width="120" height="60" as="geometry" />
        </mxCell>
        <mxCell id="zim9InCL9UAhZSMzU34I-47" value="" style="edgeStyle=orthogonalEdgeStyle;rounded=0;orthogonalLoop=1;jettySize=auto;html=1;" parent="1" source="zim9InCL9UAhZSMzU34I-44" target="zim9InCL9UAhZSMzU34I-46" edge="1">
          <mxGeometry relative="1" as="geometry" />
        </mxCell>
        <mxCell id="zim9InCL9UAhZSMzU34I-44" value="&lt;ul&gt;&lt;li&gt;bump version number&lt;/li&gt;&lt;li&gt;build and sign bundle&lt;/li&gt;&lt;li&gt;stage changed files(version number which will need to be bumped for new builds)&lt;/li&gt;&lt;li&gt;commit changed files&lt;/li&gt;&lt;li&gt;&lt;p style=&quot;margin: 0px; font-variant-numeric: normal; font-variant-east-asian: normal; font-stretch: normal; font-size: 13px; line-height: normal; font-family: &amp;quot;Helvetica Neue&amp;quot;; text-align: start;&quot; class=&quot;p1&quot;&gt;publish apps to TestFlight&amp;nbsp;&lt;/p&gt;&lt;/li&gt;&lt;/ul&gt;" style="whiteSpace=wrap;html=1;rounded=1;" parent="1" vertex="1">
          <mxGeometry x="2230" y="855" width="360" height="145" as="geometry" />
        </mxCell>
        <mxCell id="zim9InCL9UAhZSMzU34I-46" value="slack message to indicate build and deploy was successful" style="whiteSpace=wrap;html=1;rounded=1;" parent="1" vertex="1">
          <mxGeometry x="2350" y="1122.5" width="120" height="60" as="geometry" />
        </mxCell>
        <mxCell id="zim9InCL9UAhZSMzU34I-51" value="" style="edgeStyle=orthogonalEdgeStyle;rounded=0;orthogonalLoop=1;jettySize=auto;html=1;" parent="1" source="zim9InCL9UAhZSMzU34I-48" target="zim9InCL9UAhZSMzU34I-50" edge="1">
          <mxGeometry relative="1" as="geometry" />
        </mxCell>
        <mxCell id="zim9InCL9UAhZSMzU34I-48" value="read version number from package.json" style="whiteSpace=wrap;html=1;rounded=1;" parent="1" vertex="1">
          <mxGeometry x="3130" y="710" width="120" height="60" as="geometry" />
        </mxCell>
        <mxCell id="zim9InCL9UAhZSMzU34I-55" style="edgeStyle=orthogonalEdgeStyle;rounded=0;orthogonalLoop=1;jettySize=auto;html=1;exitX=0.5;exitY=1;exitDx=0;exitDy=0;entryX=0.5;entryY=0;entryDx=0;entryDy=0;" parent="1" source="zim9InCL9UAhZSMzU34I-50" target="zim9InCL9UAhZSMzU34I-54" edge="1">
          <mxGeometry relative="1" as="geometry" />
        </mxCell>
        <mxCell id="zim9InCL9UAhZSMzU34I-50" value="&lt;ul&gt;&lt;li&gt;bump version number&lt;/li&gt;&lt;li&gt;build and sign bundle&lt;/li&gt;&lt;li&gt;stage changed files(version number which will need to be bumped for new builds)&lt;/li&gt;&lt;li&gt;commit changed files&lt;/li&gt;&lt;li&gt;&lt;p style=&quot;margin: 0px; font-variant-numeric: normal; font-variant-east-asian: normal; font-stretch: normal; font-size: 13px; line-height: normal; font-family: &amp;quot;Helvetica Neue&amp;quot;; text-align: start;&quot; class=&quot;p1&quot;&gt;publish apps to firebase distribution&lt;/p&gt;&lt;/li&gt;&lt;/ul&gt;" style="whiteSpace=wrap;html=1;rounded=1;" parent="1" vertex="1">
          <mxGeometry x="3000" y="850" width="340" height="110" as="geometry" />
        </mxCell>
        <mxCell id="zim9InCL9UAhZSMzU34I-54" value="slack message to indicate build and deploy was successful" style="whiteSpace=wrap;html=1;rounded=1;" parent="1" vertex="1">
          <mxGeometry x="3110" y="1090" width="120" height="60" as="geometry" />
        </mxCell>
        <mxCell id="Y_6ok89p1FJweFbt9RA1-2" style="edgeStyle=orthogonalEdgeStyle;rounded=0;orthogonalLoop=1;jettySize=auto;html=1;exitX=0;exitY=0.5;exitDx=0;exitDy=0;entryX=0.5;entryY=0;entryDx=0;entryDy=0;" parent="1" target="Y_6ok89p1FJweFbt9RA1-5" edge="1">
          <mxGeometry relative="1" as="geometry">
            <mxPoint x="4040" y="115" as="sourcePoint" />
          </mxGeometry>
        </mxCell>
        <mxCell id="Y_6ok89p1FJweFbt9RA1-3" style="edgeStyle=orthogonalEdgeStyle;rounded=0;orthogonalLoop=1;jettySize=auto;html=1;exitX=1;exitY=0.5;exitDx=0;exitDy=0;entryX=0.5;entryY=0;entryDx=0;entryDy=0;" parent="1" target="Y_6ok89p1FJweFbt9RA1-7" edge="1">
          <mxGeometry relative="1" as="geometry">
            <mxPoint x="4210" y="115" as="sourcePoint" />
          </mxGeometry>
        </mxCell>
        <mxCell id="Y_6ok89p1FJweFbt9RA1-4" style="edgeStyle=orthogonalEdgeStyle;rounded=0;orthogonalLoop=1;jettySize=auto;html=1;exitX=0.5;exitY=1;exitDx=0;exitDy=0;" parent="1" source="Y_6ok89p1FJweFbt9RA1-5" target="Y_6ok89p1FJweFbt9RA1-9" edge="1">
          <mxGeometry relative="1" as="geometry" />
        </mxCell>
        <mxCell id="Y_6ok89p1FJweFbt9RA1-5" value="mac-os" style="whiteSpace=wrap;html=1;rounded=1;" parent="1" vertex="1">
          <mxGeometry x="3660" y="250" width="120" height="60" as="geometry" />
        </mxCell>
        <mxCell id="Y_6ok89p1FJweFbt9RA1-6" value="" style="edgeStyle=orthogonalEdgeStyle;rounded=0;orthogonalLoop=1;jettySize=auto;html=1;" parent="1" source="Y_6ok89p1FJweFbt9RA1-7" edge="1">
          <mxGeometry relative="1" as="geometry">
            <mxPoint x="4510" y="520" as="targetPoint" />
          </mxGeometry>
        </mxCell>
        <mxCell id="Y_6ok89p1FJweFbt9RA1-7" value="ubuntu" style="whiteSpace=wrap;html=1;rounded=1;" parent="1" vertex="1">
          <mxGeometry x="4450" y="250" width="120" height="60" as="geometry" />
        </mxCell>
        <mxCell id="Y_6ok89p1FJweFbt9RA1-8" value="" style="edgeStyle=orthogonalEdgeStyle;rounded=0;orthogonalLoop=1;jettySize=auto;html=1;" parent="1" source="Y_6ok89p1FJweFbt9RA1-9" target="Y_6ok89p1FJweFbt9RA1-12" edge="1">
          <mxGeometry relative="1" as="geometry" />
        </mxCell>
        <mxCell id="Y_6ok89p1FJweFbt9RA1-9" value="&lt;ul&gt;&lt;li&gt;install node&lt;/li&gt;&lt;li&gt;install packages&lt;/li&gt;&lt;li&gt;install cocapods&lt;/li&gt;&lt;li&gt;install pods&lt;/li&gt;&lt;li&gt;&lt;br&gt;&lt;/li&gt;&lt;/ul&gt;" style="whiteSpace=wrap;html=1;rounded=1;" parent="1" vertex="1">
          <mxGeometry x="3600" y="530" width="320" height="90" as="geometry" />
        </mxCell>
        <mxCell id="Y_6ok89p1FJweFbt9RA1-10" style="edgeStyle=orthogonalEdgeStyle;rounded=0;orthogonalLoop=1;jettySize=auto;html=1;exitX=0.5;exitY=1;exitDx=0;exitDy=0;entryX=0.5;entryY=0;entryDx=0;entryDy=0;" parent="1" target="Y_6ok89p1FJweFbt9RA1-17" edge="1">
          <mxGeometry relative="1" as="geometry">
            <mxPoint x="4510" y="610" as="sourcePoint" />
          </mxGeometry>
        </mxCell>
        <mxCell id="Y_6ok89p1FJweFbt9RA1-11" value="" style="edgeStyle=orthogonalEdgeStyle;rounded=0;orthogonalLoop=1;jettySize=auto;html=1;" parent="1" source="Y_6ok89p1FJweFbt9RA1-12" target="Y_6ok89p1FJweFbt9RA1-14" edge="1">
          <mxGeometry relative="1" as="geometry" />
        </mxCell>
        <mxCell id="Y_6ok89p1FJweFbt9RA1-12" value="read version number from package.json" style="whiteSpace=wrap;html=1;rounded=1;" parent="1" vertex="1">
          <mxGeometry x="3700" y="715" width="120" height="60" as="geometry" />
        </mxCell>
        <mxCell id="Y_6ok89p1FJweFbt9RA1-13" value="" style="edgeStyle=orthogonalEdgeStyle;rounded=0;orthogonalLoop=1;jettySize=auto;html=1;" parent="1" source="Y_6ok89p1FJweFbt9RA1-14" target="Y_6ok89p1FJweFbt9RA1-15" edge="1">
          <mxGeometry relative="1" as="geometry" />
        </mxCell>
        <mxCell id="Y_6ok89p1FJweFbt9RA1-14" value="&lt;ul&gt;&lt;li&gt;bump version number&lt;/li&gt;&lt;li&gt;build and sign bundle&lt;/li&gt;&lt;li&gt;stage changed files(version number which will need to be bumped for new builds)&lt;/li&gt;&lt;li&gt;commit changed files&lt;/li&gt;&lt;li&gt;&lt;p style=&quot;margin: 0px; font-variant-numeric: normal; font-variant-east-asian: normal; font-stretch: normal; font-size: 13px; line-height: normal; font-family: &amp;quot;Helvetica Neue&amp;quot;; text-align: start;&quot; class=&quot;p1&quot;&gt;publish and create new submission of apps to app store connect&amp;nbsp;&lt;/p&gt;&lt;/li&gt;&lt;/ul&gt;" style="whiteSpace=wrap;html=1;rounded=1;" parent="1" vertex="1">
          <mxGeometry x="3580" y="855" width="360" height="145" as="geometry" />
        </mxCell>
        <mxCell id="Y_6ok89p1FJweFbt9RA1-15" value="slack message to indicate build and deploy was successful" style="whiteSpace=wrap;html=1;rounded=1;" parent="1" vertex="1">
          <mxGeometry x="3700" y="1220" width="120" height="60" as="geometry" />
        </mxCell>
        <mxCell id="Y_6ok89p1FJweFbt9RA1-16" value="" style="edgeStyle=orthogonalEdgeStyle;rounded=0;orthogonalLoop=1;jettySize=auto;html=1;" parent="1" source="Y_6ok89p1FJweFbt9RA1-17" edge="1">
          <mxGeometry relative="1" as="geometry">
            <mxPoint x="4520" y="850" as="targetPoint" />
          </mxGeometry>
        </mxCell>
        <mxCell id="Y_6ok89p1FJweFbt9RA1-17" value="read version number from package.json" style="whiteSpace=wrap;html=1;rounded=1;" parent="1" vertex="1">
          <mxGeometry x="4480" y="710" width="120" height="60" as="geometry" />
        </mxCell>
        <mxCell id="Y_6ok89p1FJweFbt9RA1-18" style="edgeStyle=orthogonalEdgeStyle;rounded=0;orthogonalLoop=1;jettySize=auto;html=1;exitX=0.5;exitY=1;exitDx=0;exitDy=0;entryX=0.5;entryY=0;entryDx=0;entryDy=0;" parent="1" target="Y_6ok89p1FJweFbt9RA1-19" edge="1">
          <mxGeometry relative="1" as="geometry">
            <mxPoint x="4520" y="960" as="sourcePoint" />
          </mxGeometry>
        </mxCell>
        <mxCell id="Y_6ok89p1FJweFbt9RA1-19" value="slack message to indicate build and deploy was successful" style="whiteSpace=wrap;html=1;rounded=1;" parent="1" vertex="1">
          <mxGeometry x="4460" y="1220" width="120" height="60" as="geometry" />
        </mxCell>
        <mxCell id="Y_6ok89p1FJweFbt9RA1-20" value="&lt;ul&gt;&lt;li&gt;install node&lt;/li&gt;&lt;li&gt;install packages&lt;/li&gt;&lt;li&gt;install java&lt;/li&gt;&lt;/ul&gt;" style="whiteSpace=wrap;html=1;rounded=1;" parent="1" vertex="1">
          <mxGeometry x="4365" y="525" width="290" height="90" as="geometry" />
        </mxCell>
        <mxCell id="Y_6ok89p1FJweFbt9RA1-21" value="&lt;ul&gt;&lt;li&gt;bump version number&lt;/li&gt;&lt;li&gt;build and sign bundle&lt;/li&gt;&lt;li&gt;stage changed files(version number which will need to be bumped for new builds)&lt;/li&gt;&lt;li&gt;commit changed files&lt;/li&gt;&lt;li&gt;&lt;p style=&quot;margin: 0px; font-variant-numeric: normal; font-variant-east-asian: normal; font-stretch: normal; font-size: 13px; line-height: normal; font-family: &amp;quot;Helvetica Neue&amp;quot;; text-align: start;&quot; class=&quot;p1&quot;&gt;publish apps to production track&lt;/p&gt;&lt;/li&gt;&lt;/ul&gt;" style="whiteSpace=wrap;html=1;rounded=1;" parent="1" vertex="1">
          <mxGeometry x="4370" y="850" width="340" height="110" as="geometry" />
        </mxCell>
        <mxCell id="Y_6ok89p1FJweFbt9RA1-22" value="git tag with pattern release-v1.2.3&lt;br&gt;prefix-v${versionNumber}" style="rounded=1;whiteSpace=wrap;html=1;" parent="1" vertex="1">
          <mxGeometry x="4060" y="75" width="170" height="90" as="geometry" />
        </mxCell>
        <mxCell id="Y_6ok89p1FJweFbt9RA1-23" value="publish codepush" style="rounded=1;whiteSpace=wrap;html=1;" parent="1" vertex="1">
          <mxGeometry x="3720" y="1080" width="120" height="60" as="geometry" />
        </mxCell>
        <mxCell id="Y_6ok89p1FJweFbt9RA1-24" value="publish codepush" style="rounded=1;whiteSpace=wrap;html=1;" parent="1" vertex="1">
          <mxGeometry x="4480" y="1080" width="120" height="60" as="geometry" />
        </mxCell>
        <mxCell id="eEjps6256RhUfAz-EOFf-2" value="&lt;b&gt;Workflow 1: Develop&lt;/b&gt;" style="text;html=1;align=center;verticalAlign=middle;resizable=0;points=[];autosize=1;strokeColor=none;fillColor=none;" vertex="1" parent="1">
          <mxGeometry x="1300" y="5" width="140" height="30" as="geometry" />
        </mxCell>
        <mxCell id="eEjps6256RhUfAz-EOFf-3" value="&lt;b style=&quot;color: rgb(0, 0, 0); font-family: Helvetica; font-size: 12px; font-style: normal; font-variant-ligatures: normal; font-variant-caps: normal; letter-spacing: normal; orphans: 2; text-align: center; text-indent: 0px; text-transform: none; widows: 2; word-spacing: 0px; -webkit-text-stroke-width: 0px; background-color: rgb(248, 249, 250); text-decoration-thickness: initial; text-decoration-style: initial; text-decoration-color: initial;&quot;&gt;Workflow 2: Stage&lt;/b&gt;" style="text;whiteSpace=wrap;html=1;" vertex="1" parent="1">
          <mxGeometry x="2290" y="20" width="150" height="40" as="geometry" />
        </mxCell>
        <mxCell id="eEjps6256RhUfAz-EOFf-4" value="&lt;b style=&quot;color: rgb(0, 0, 0); font-family: Helvetica; font-size: 12px; font-style: normal; font-variant-ligatures: normal; font-variant-caps: normal; letter-spacing: normal; orphans: 2; text-align: center; text-indent: 0px; text-transform: none; widows: 2; word-spacing: 0px; -webkit-text-stroke-width: 0px; background-color: rgb(248, 249, 250); text-decoration-thickness: initial; text-decoration-style: initial; text-decoration-color: initial;&quot;&gt;Workflow 3: Production&lt;/b&gt;" style="text;whiteSpace=wrap;html=1;" vertex="1" parent="1">
          <mxGeometry x="3890" y="40" width="150" height="40" as="geometry" />
        </mxCell>
      </root>
    </mxGraphModel>
  </diagram>
</mxfile>
